<svg
   width="150"
   height="100%"
   viewBox="0 0 300 126.19048"
   fill="#FFF"
   version="1.1"
   id="svg12"
   sodipodi:docname="Logo.9759c558.svg"
   inkscape:version="1.3.2 (091e20e, 2023-11-25, custom)"
   xmlns:inkscape="http://www.inkscape.org/namespaces/inkscape"
   xmlns:sodipodi="http://sodipodi.sourceforge.net/DTD/sodipodi-0.dtd"
   xmlns="http://www.w3.org/2000/svg"
   xmlns:svg="http://www.w3.org/2000/svg">
  <sodipodi:namedview
     id="namedview12"
     pagecolor="#ffffff"
     bordercolor="#999999"
     borderopacity="1"
     inkscape:showpageshadow="2"
     inkscape:pageopacity="0"
     inkscape:pagecheckerboard="0"
     inkscape:deskcolor="#d1d1d1"
     inkscape:zoom="1.484127"
     inkscape:cx="192.70588"
     inkscape:cy="120.60963"
     inkscape:window-width="1500"
     inkscape:window-height="912"
     inkscape:window-x="-8"
     inkscape:window-y="-8"
     inkscape:window-maximized="1"
     inkscape:current-layer="svg12" />
  <g
     clip-path="url(#clip0_36_591)"
     id="g12"
     transform="scale(1.1904762)">
    <path
       d="m 31.6056,18.4549 c -0.4725,-0.2328 -0.8878,-0.704 -0.4124,-1.3456 0.3293,-0.4457 0.8276,-0.3549 0.8276,-0.3549 h 12.7115 c 0,0 2.4828,0.1193 3.9002,1.0589 1.4175,0.934 2.1878,1.9928 2.6031,3.222 0.4123,1.2292 0.2949,3.1624 0.2949,3.1624 L 50.113,41.0146 48.0426,63.634 c 0,0 -0.2233,2.2796 0.6472,3.8097 0.7703,1.3512 2.1907,2.1092 3.1929,2.4612 1.0052,0.3492 3.6626,0.8772 3.6626,0.8772 0,0 0.7102,0.2356 0.7102,0.7068 0,0.4713 -0.1174,0.7041 -0.5899,0.9936 -0.4754,0.2924 -0.945,0.2924 -0.945,0.2924 H 41.422 c 0,0 -2.1534,0.0823 -4.1981,-1.8736 -1.7754,-1.6976 -1.7754,-4.3348 -1.7754,-4.3348 l 0.0601,-2.5805 3.6053,-38.0282 c 0,0 0.0229,-2.254 -0.5297,-3.3981 -0.6501,-1.3484 -1.1226,-1.8735 -2.6603,-2.5776 -1.2228,-0.562 -4.3155,-1.5244 -4.3155,-1.5244"
       fill="#FFFFFF"
       id="path1"
       style="fill:#fff;fill-opacity:1" />
    <path
       d="m 83.5828,18.3783 c -0.4753,-0.2328 -0.8877,-0.7012 -0.4123,-1.3484 0.3293,-0.4457 0.8275,-0.352 0.8275,-0.352 h 12.7116 c 0,0 2.4799,0.1192 3.8974,1.056 1.423,0.9368 2.191,1.99 2.603,3.222 0.412,1.2321 0.298,3.1653 0.298,3.1653 l -1.421,16.8197 -2.067,22.6166 c 0,0 -0.2235,2.2795 0.647,3.8068 0.77,1.3456 2.053,2.1291 3.058,2.4811 1.006,0.352 3.798,0.8601 3.798,0.8601 0,0 0.667,0.2811 0.667,0.7495 0,0.4684 -0.086,0.7324 -0.561,1.0248 -0.476,0.2952 -0.931,0.2185 -0.931,0.2185 H 93.3935 c 0,0 -2.1505,0.0795 -4.1952,-1.8764 -1.7754,-1.7004 -1.7754,-4.3348 -1.7754,-4.3348 l 0.0601,-2.5776 3.6053,-38.0311 c 0,0 -0.1117,-2.0014 -0.6672,-3.1454 -0.6472,-1.3484 -1.4747,-2.2284 -2.5257,-2.8331 -1.1683,-0.67 -4.3154,-1.5216 -4.3154,-1.5216"
       fill="#FFFFFF"
       id="path2"
       style="fill:#fff;fill-opacity:1" />
    <path
       d="M 109.931,1.87359 C 109.519,1.52159 109.344,1.22635 109.519,0.701178 109.753,0 110.704,0.0596144 110.704,0.0596144 L 123.53,0 c 0,0 3.491,0.0596144 5.378,1.69759 1.89,1.64081 2.188,2.9864 2.251,4.21843 0.06,1.22919 -1.068,14.76728 -1.068,14.76728 0,0 -0.118,0.8205 0.12,0.8205 0.238,0 2.007,-0.9368 3.545,-1.5812 1.535,-0.6445 5.378,-1.7573 8.751,-1.5216 3.365,0.2327 7.858,0.6444 12.941,4.2184 5.086,3.574 6.801,7.5597 8.161,11.6021 1.357,4.0424 1.297,9.0841 1.297,9.0841 0,0 0.121,5.2148 -1.417,10.6057 -1.535,5.388 -4.078,8.6128 -4.078,8.6128 0,0 -1.715,2.8132 -5.438,5.8592 -3.725,3.0489 -8.218,4.5137 -8.218,4.5137 0,0 -4.554,1.5216 -9.519,1.4648 -4.963,-0.0596 -8.737,-1.0872 -12.291,-2.694 -4.023,-1.8168 -6.56,-5.3937 -6.56,-5.3937 0,0 -2.606,-3.4576 -2.961,-4.8032 -0.352,-1.3484 -0.235,-1.9332 0.063,-2.2284 0.292,-0.2924 0.707,-0.1136 0.882,0.0568 0.18,0.176 2.016,1.936 2.955,2.6372 0.951,0.7068 2.428,1.9928 5.143,2.9892 2.721,0.9964 5.263,1.6948 8.101,1.9332 2.835,0.2328 6.973,-0.4059 9.871,-1.9332 2.898,-1.5244 5.911,-4.454 6.976,-6.0352 1.068,-1.5841 2.898,-3.9857 4.141,-9.4929 1.237,-5.5072 0.824,-8.6129 0.824,-8.6129 0,0 -0.063,-4.4568 -2.425,-9.7881 -2.689,-6.0693 -8.511,-7.2644 -8.511,-7.2644 0,0 -2.583,-0.6416 -5.32,-0.2328 -2.363,0.3492 -5.143,2.1092 -6.209,3.574 -1.062,1.4648 -1.182,2.5776 -1.477,4.9225 -0.135,1.0702 -1.776,17.1689 -1.776,17.1689 0,0 -0.174,3.4576 0.06,4.6868 0.238,1.2321 0.945,3.2221 1.776,3.9857 0.83,0.7636 1.541,0.88 1.478,1.3484 -0.061,0.4684 -0.645,1.1156 -1.535,1.2888 -0.888,0.176 -2.721,0.2328 -5.086,-0.352 -2.363,-0.5848 -4.848,-1.814 -6.798,-4.5704 -1.95,-2.7565 -2.603,-5.0417 -2.898,-7.9685 -0.292,-2.9353 1.537,-20.8026 1.537,-20.8026 l 1.833,-18.4577 c 0,0 -0.063,-2.2256 -1.775,-3.86642 -1.713,-1.64081 -4.436,-2.10921 -4.436,-2.10921 0,0 -1.478,-0.11923 -1.893,-0.4684"
       fill="#FFFFFF"
       id="path3"
       style="fill:#fff;fill-opacity:1" />
    <path
       d="m 204.874,21.3277 c 0,0 2.777,-0.528 5.08,-0.4117 2.308,0.1193 4.613,0.5848 5.853,1.1157 1.24,0.5252 2.305,0.8772 2.717,1.0532 0.416,0.176 1.183,0.176 1.303,-0.4684 0.115,-0.6444 -0.475,-1.1724 -1.42,-1.8765 -0.942,-0.7011 -4.965,-3.2191 -8.393,-4.0424 -3.428,-0.8204 -6.148,-0.9964 -9.636,-0.8204 -3.485,0.176 -10.037,1.885 -14.129,4.102 -5.281,2.8644 -9.278,7.1793 -10.759,9.7825 -1.595,2.8132 -3.674,6.1459 -4.195,12.9533 -0.412,5.3909 0.235,10.6057 2.305,14.5885 2.429,4.6868 6.266,9.2601 10.407,11.6021 4.135,2.3448 10.045,4.6272 16.311,4.5108 6.268,-0.1164 12.651,-2.5776 15.784,-5.0956 3.133,-2.5208 3.221,-2.887 3.37,-3.5172 0.235,-0.9936 -0.352,-1.2292 -0.824,-1.2292 -0.473,0 -0.828,0.2952 -2.251,0.9964 -1.418,0.704 -4.255,1.584 -6.326,1.8764 -2.065,0.2924 -5.676,0.5877 -10.048,-0.88 -4.376,-1.4648 -8.099,-4.8657 -8.099,-4.8657 0,0 -3.49,-3.398 -4.968,-7.3808 -1.48,-3.9856 -1.36,-9.4929 -1.36,-9.4929 0,0 0.117,-6.7392 3.25,-11.3068 3.133,-4.5705 5.318,-6.3532 8.866,-8.4397 3.488,-2.0496 7.153,-2.7536 7.153,-2.7536"
       fill="#FFFFFF"
       id="path4"
       style="fill:#fff;fill-opacity:1" />
    <path
       d="m 57.7188,18.3839 c -0.4782,-0.2328 -0.8877,-0.7012 -0.4181,-1.3484 0.3293,-0.4457 0.8305,-0.3492 0.8305,-0.3492 h 12.7115 c 0,0 2.4799,0.1164 3.8974,1.056 1.4203,0.9368 2.1906,1.9929 2.603,3.222 0.4152,1.2292 0.2949,3.1653 0.2949,3.1653 l -1.4175,16.8169 -2.0703,22.6166 c 0,0 -0.2205,2.2795 0.6529,3.8096 0.7703,1.3484 2.1849,2.112 3.19,2.4641 1.0051,0.3491 3.6683,0.88 3.6683,0.88 0,0 0.7073,0.2299 0.7073,0.7012 0,0.4712 -0.1145,0.704 -0.587,0.9964 -0.4754,0.2924 -0.9508,0.2924 -0.9508,0.2924 H 67.5295 c 0,0 -2.1534,0.0823 -4.198,-1.8765 -1.7726,-1.6976 -1.7726,-4.3348 -1.7726,-4.3348 l 0.0601,-2.5776 3.6053,-38.0283 c 0,0 0.0172,-2.2568 -0.5298,-3.4008 -0.6529,-1.3456 -1.1225,-1.8736 -2.6631,-2.5748 -1.2256,-0.5621 -4.3126,-1.5244 -4.3126,-1.5244"
       fill="#FFFFFF"
       id="path5"
       style="fill:#ff;fill-opacity:1" />
    <path
       d="m 83.4912,18.3839 c -0.4753,-0.2328 -0.8848,-0.7012 -0.4123,-1.3484 0.3264,-0.4457 0.8247,-0.3492 0.8247,-0.3492 h 12.7115 c 0,0 2.4856,0.1164 3.8999,1.056 1.421,0.9368 2.188,1.9929 2.603,3.222 0.413,1.2292 0.298,3.1653 0.298,3.1653 l -1.42,16.8169 -2.0677,22.6166 c 0,0 -0.2205,2.2795 0.6497,3.8096 0.768,1.3484 2.188,2.112 3.193,2.4641 1,0.3491 3.663,0.88 3.663,0.88 0,0 0.707,0.2299 0.707,0.7012 0,0.4712 -0.117,0.704 -0.59,0.9964 -0.472,0.2924 -0.945,0.2924 -0.945,0.2924 H 93.3019 c 0,0 -2.1534,0.0823 -4.1951,-1.8765 -1.7726,-1.6976 -1.7726,-4.3348 -1.7726,-4.3348 l 0.0572,-2.5776 3.6082,-38.0283 c 0,0 0.02,-2.2568 -0.5326,-3.4008 -0.6472,-1.3456 -1.1226,-1.8736 -2.6575,-2.5748 -1.2256,-0.5621 -4.3154,-1.5244 -4.3154,-1.5244"
       fill="#FFFFFF"
       id="path6"
       style="fill:#fff;fill-opacity:1" />
  <defs
     id="defs12">

  </defs>
</svg>
