<svg xmlns="http://www.w3.org/2000/svg" xmlns:xlink="http://www.w3.org/1999/xlink" width="200" zoomAndPan="magnify" viewBox="0 0 150 225" height="300" preserveAspectRatio="xMidYMid meet" version="1.0"><defs><clipPath id="eda8b5f2be"><path d="M 17 97.554688 L 134.683594 97.554688 L 134.683594 126.804688 L 17 126.804688 Z M 17 97.554688 " clip-rule="nonzero"/></clipPath></defs><rect x="-15" width="180" fill="#ffffff" y="-22.5" height="270" fill-opacity="1"/><rect x="-15" width="180" fill="#ff1e02" y="-22.5" height="270" fill-opacity="1"/><g clip-path="url(#eda8b5f2be)"><path fill="#ffffff" d="M 115.96875 126.804688 L 116.578125 126.804688 L 116.578125 123.984375 L 116.589844 123.984375 L 117.605469 126.804688 L 118.132812 126.804688 L 119.148438 123.984375 L 119.160156 123.984375 L 119.160156 126.804688 L 119.769531 126.804688 L 119.769531 123.148438 L 118.875 123.148438 L 117.890625 126.011719 L 117.882812 126.011719 L 116.871094 123.148438 L 115.96875 123.148438 Z M 112.585938 123.703125 L 113.746094 123.703125 L 113.746094 126.804688 L 114.386719 126.804688 L 114.386719 123.703125 L 115.550781 123.703125 L 115.550781 123.148438 L 112.585938 123.148438 Z M 105.128906 126.804688 L 134.453125 97.554688 L 116.804688 97.554688 L 87.480469 126.804688 Z M 100.925781 110.292969 L 65.429688 110.292969 C 54.609375 110.292969 52.714844 110.863281 48.082031 115.488281 C 43.75 119.808594 36.710938 126.804688 36.710938 126.804688 L 52.085938 126.804688 L 55.753906 123.144531 C 58.167969 120.738281 59.410156 120.488281 64.476562 120.488281 L 90.703125 120.488281 Z M 47.609375 113.402344 C 44.410156 116.414062 37.445312 123.160156 33.691406 126.804688 L 17.160156 126.804688 C 17.160156 126.804688 30.40625 113.628906 37.769531 106.398438 C 45.355469 99.199219 49.136719 97.554688 63.050781 97.554688 L 113.695312 97.554688 L 102.730469 108.492188 L 64.078125 108.492188 C 54.300781 108.492188 52.105469 109.167969 47.609375 113.402344 Z M 47.609375 113.402344 " fill-opacity="1" fill-rule="evenodd"/></g></svg>