
<svg xmlns="http://www.w3.org/2000/svg" width="120PX" height="120PX" viewBox="0 0 64 32">
    <g fill="none" fill-rule="evenodd">
        <g fill="#CCC">
            <g>
                <g>
                    <g>
                        <g>
                            <path d="M5.389 18.26c.105.007.195.05.285.1.44.24.876.486 1.32.717 1.403.732 2.852 1.36 4.34 1.901 1.79.652 3.621 1.166 5.49 1.549.883.18 1.771.33 2.666.448.784.104 1.57.19 2.361.24.489.032.978.056 1.467.078.795.037 1.592.033 2.387.009.8-.025 1.597-.08 2.393-.157 1.933-.189 3.839-.525 5.72-1 1.78-.452 3.52-1.027 5.214-1.736.15-.063.302-.098.464-.081.307.032.533.279.514.56-.01.144-.078.263-.177.364-.05.052-.108.099-.167.142-.854.62-1.756 1.164-2.697 1.644-2.175 1.109-4.472 1.877-6.861 2.385-.874.186-1.754.334-2.642.436-.365.042-.73.078-1.095.118-.036.004-.072.015-.107.023h-4.312c-.1-.015-.2-.033-.302-.044-.478-.052-.958-.094-1.435-.157-.76-.099-1.515-.235-2.265-.398-1.762-.383-3.472-.929-5.127-1.639-1.551-.664-3.028-1.462-4.432-2.392-1.115-.738-2.17-1.552-3.167-2.44-.077-.068-.145-.142-.177-.242-.076-.237.09-.445.342-.428zm35.788-.737c.518.024 1.033.084 1.53.238.117.035.23.084.341.133.166.073.265.202.292.378.021.139.044.28.046.42.01.663-.114 1.309-.291 1.945-.268.96-.667 1.862-1.251 2.679-.27.377-.578.721-.934 1.02-.08.067-.175.117-.269.164-.04.021-.095.023-.143.022-.116-.005-.196-.075-.196-.19 0-.082.02-.168.049-.246.18-.472.37-.94.546-1.413.224-.602.427-1.212.565-1.84.073-.327.133-.657.111-.995-.004-.076-.018-.152-.035-.227-.038-.167-.14-.288-.292-.368-.224-.118-.468-.163-.715-.196-.394-.053-.79-.052-1.186-.057-.375.024-.75.042-1.123.073-.443.038-.885.086-1.328.13-.105.011-.21.03-.315.037-.077.005-.157.008-.23-.01-.134-.032-.189-.14-.15-.27.039-.132.134-.22.243-.295.254-.176.524-.327.806-.456.649-.298 1.332-.479 2.037-.585.628-.095 1.259-.121 1.892-.091zM24.94 4.645c.505.037.993.142 1.454.352.798.364 1.349.962 1.68 1.762.19.464.283.95.322 1.448.047.595.007 1.186-.077 1.774-.01.068-.028.135-.046.2-.037.136-.13.213-.27.23-.068.008-.137.01-.207.01h-6.243c.012.173.019.326.033.478.034.363.103.719.226 1.064.299.843.885 1.385 1.754 1.628.516.144 1.043.178 1.576.17.786-.014 1.547-.166 2.294-.4.112-.035.226-.07.34-.099.262-.066.399.021.412.289.013.257-.001.516-.008.774-.004.155-.09.262-.22.341-.21.128-.442.208-.675.281-.636.2-1.288.323-1.954.372-.56.042-1.118.04-1.674-.03-.674-.085-1.319-.265-1.908-.61-.802-.467-1.346-1.148-1.688-1.996-.21-.521-.328-1.064-.392-1.62-.046-.393-.067-.788-.061-1.184.01-.746.095-1.481.33-2.195.224-.678.57-1.285 1.077-1.796.542-.547 1.196-.902 1.945-1.092.65-.165 1.312-.2 1.98-.151zm9.716-2.557c.048 0 .098.009.145.021.12.03.203.104.232.225.016.066.023.136.023.203v2.375c.062.003.113.008.164.008l2.39.001c.064 0 .13.005.193.017.163.033.257.136.27.3.008.097.005.195.005.291v.594c-.001.119-.032.23-.14.294-.067.04-.15.054-.229.073-.038.009-.081.002-.122.002h-2.52c-.004.05-.01.089-.01.128V12.3c0 .191.023.379.078.562.092.305.288.51.594.61.227.075.462.099.7.104.385.01.764-.045 1.142-.114.104-.02.21-.036.315-.038.157-.004.233.064.261.215.005.024.011.048.01.072 0 .262.001.524-.006.786-.007.22-.132.358-.337.429-.267.093-.542.15-.821.189-.425.058-.853.087-1.282.069-.319-.014-.634-.052-.942-.14-.814-.236-1.341-.755-1.576-1.562-.105-.36-.146-.728-.146-1.1V6.5c-.063-.003-.11-.007-.158-.007h-1.237c-.337-.001-.461-.122-.463-.452v-.424c.001-.044.005-.089.01-.133.02-.157.106-.263.262-.299.138-.032.28-.054.42-.072.381-.05.762-.095 1.143-.142.024-.003.047-.009.081-.015.011-.087.024-.174.033-.262.045-.421.088-.843.132-1.264.034-.317.064-.635.101-.951.03-.26.162-.383.427-.39.286-.009.572-.003.858-.001zM5.513 0c.12.015.242.024.362.045.289.052.577.109.864.165.044.009.087.024.129.04.173.064.28.185.287.37.01.261.009.524.012.786 0 .02-.005.04-.009.06-.03.173-.125.262-.3.253-.176-.008-.35-.033-.523-.06-.488-.073-.975-.088-1.46.014l-.048.01c-.456.122-.777.346-.877 1.023-.02.139-.026.281-.027.422-.002.541 0 1.082 0 1.624v.158c.059.004.11.01.16.01l2.5.001c.068 0 .138.007.205.02.138.03.22.12.246.255.01.048.013.096.014.145V6.128c-.014.22-.118.33-.339.36l-.073.004H3.93c-.003.067-.007.122-.007.177v4.555l-.001 3.356c0 .064-.002.13-.014.192-.026.142-.113.23-.256.26-.06.012-.121.016-.182.016-.368.002-.735.002-1.103.001-.334 0-.454-.121-.454-.456V6.5c-.058-.004-.106-.008-.153-.008L.474 6.492c-.053 0-.106-.004-.158-.012-.131-.02-.226-.088-.272-.215-.011-.03-.03-.058-.044-.086v-.703c.011-.016.029-.031.033-.05.042-.151.154-.221.297-.256.055-.013.112-.025.168-.032l1.044-.128c.12-.015.24-.033.37-.05v-.167c.007-.645.007-1.29.024-1.936.009-.356.083-.705.2-1.043.236-.69.67-1.21 1.351-1.514.288-.129.591-.208.904-.252.128-.019.257-.032.387-.048h.735zm43.18 4.92c.183.006.246.05.307.217v.097c-.157.415-.307.832-.472 1.244-1.08 2.7-2.161 5.397-3.244 8.095-.036.09-.08.176-.127.262-.057.106-.15.169-.27.188-.085.013-.17.024-.256.025-.35.003-.702.002-1.053 0-.077 0-.154-.011-.231-.021-.14-.018-.243-.09-.307-.214-.042-.083-.084-.166-.119-.252L40.486 8.52l-1.133-2.813c-.042-.105-.088-.209-.12-.317-.024-.08-.034-.166-.036-.249-.003-.1.057-.168.152-.196.054-.016.113-.023.169-.023.4-.002.8-.002 1.2 0 .05 0 .098.008.147.01.21.005.342.118.416.302.084.21.165.421.241.635l2.553 7.186c.015.044.033.088.06.157.025-.062.041-.098.054-.135l2.066-5.815c.208-.587.415-1.174.626-1.76.042-.117.097-.23.15-.343.062-.132.169-.205.316-.218.09-.008.179-.019.268-.02H48.693zm-30.36-.074c.191-.002.384.006.574.021.233.02.344.141.347.373.004.352.002.703 0 1.055 0 .04-.006.08-.014.12-.031.15-.121.237-.275.247-.126.008-.254.005-.38-.007-1.03-.094-1.989.103-2.855.682-.091.06-.176.13-.266.194-.043.032-.064.07-.061.124.002.04 0 .08 0 .12V14.5c0 .085-.004.17-.015.253-.02.148-.104.244-.252.277-.055.012-.113.018-.17.018-.38.002-.76.001-1.14.001-.024 0-.048 0-.073-.002-.234-.016-.353-.14-.357-.375v-9.28c0-.053-.002-.106.003-.158.016-.159.105-.26.263-.294.055-.012.113-.018.17-.019h.844c.316.003.45.125.49.438.039.32.08.641.121.961l.014.08.152-.151c.365-.367.751-.707 1.207-.962.519-.291 1.078-.435 1.673-.441zm-8.014.075c.33 0 .453.12.453.445v9.244c0 .318-.122.438-.446.439h-1.09c-.357 0-.47-.111-.471-.462V9.995v-4.58c0-.06 0-.12.006-.18.02-.165.113-.266.275-.298.056-.011.113-.016.17-.016h1.103zM23.79 6.17c-.35.05-.682.157-.984.344-.415.257-.704.62-.902 1.058-.177.39-.27.802-.319 1.225-.01.091-.016.182-.025.282h5.005c.005-.046.013-.089.014-.132.002-.198.007-.396.002-.593-.007-.271-.047-.539-.125-.8-.217-.729-.693-1.189-1.45-1.355-.403-.088-.808-.088-1.216-.03zM10.148.771c.503.112.846.51.879 1.018.003.048 0 .097 0 .145.012.253-.045.49-.186.703-.164.248-.4.398-.692.462-.25.055-.502.054-.752-.002-.495-.11-.827-.5-.869-1.016-.013-.161-.008-.322.03-.481.108-.462.475-.788.957-.85.212-.026.423-.026.633.021z" transform="translate(-130.000000, -685.000000) translate(0.000000, 40.000000) translate(0.000000, 511.000000) translate(130.000000, 134.000000) translate(8.000000, 3.000000)"/>
                        </g>
                    </g>
                </g>
            </g>
        </g>
    </g>
</svg>
